<svg width="808" height="254" viewBox="0 0 808 254" fill="none" xmlns="http://www.w3.org/2000/svg">
<circle cx="206" cy="102" r="96" stroke="black" stroke-width="12"/>
<path d="M9.29688 178V94.9092H15.3979L52.876 170.853L88.0298 94.9092H93.5498V178H88.0298V106.124L55.0259 178H50.0288L14.8169 105.542V178H9.29688Z" fill="black"/>
<path d="M9.29688 178H6.29688V181H9.29688V178ZM9.29688 94.9092V91.9092H6.29688V94.9092H9.29688ZM15.3979 94.9092L18.0882 93.5816L17.2629 91.9092H15.3979V94.9092ZM52.876 170.853L50.1857 172.181L52.9626 177.808L55.5985 172.113L52.876 170.853ZM88.0298 94.9092V91.9092H86.1126L85.3073 93.649L88.0298 94.9092ZM93.5498 94.9092H96.5498V91.9092H93.5498V94.9092ZM93.5498 178V181H96.5498V178H93.5498ZM88.0298 178H85.0298V181H88.0298V178ZM88.0298 106.124H91.0298L85.3035 104.872L88.0298 106.124ZM55.0259 178V181H56.9495L57.7522 179.252L55.0259 178ZM50.0288 178L47.3306 179.311L48.1512 181H50.0288V178ZM14.8169 105.542L17.5152 104.231L11.8169 105.542H14.8169ZM14.8169 178V181H17.8169V178H14.8169ZM12.2969 178V94.9092H6.29688V178H12.2969ZM9.29688 97.9092H15.3979V91.9092H9.29688V97.9092ZM12.7077 96.2368L50.1857 172.181L55.5662 169.525L18.0882 93.5816L12.7077 96.2368ZM55.5985 172.113L90.7523 96.1694L85.3073 93.649L50.1535 169.593L55.5985 172.113ZM88.0298 97.9092H93.5498V91.9092H88.0298V97.9092ZM90.5498 94.9092V178H96.5498V94.9092H90.5498ZM93.5498 175H88.0298V181H93.5498V175ZM91.0298 178V106.124H85.0298V178H91.0298ZM85.3035 104.872L52.2996 176.748L57.7522 179.252L90.7561 107.375L85.3035 104.872ZM55.0259 175H50.0288V181H55.0259V175ZM52.7271 176.689L17.5152 104.231L12.1186 106.854L47.3306 179.311L52.7271 176.689ZM11.8169 105.542V178H17.8169V105.542H11.8169ZM14.8169 175H9.29688V181H14.8169V175Z" fill="black"/>
<path d="M391.213 175.095C383.659 177.419 375.912 178.581 367.971 178.581C338.918 178.581 324.392 164.152 324.392 135.292C324.392 107.983 338.918 94.3281 367.971 94.3281C375.912 94.3281 383.659 95.4902 391.213 97.8145V103.044C383.659 100.72 376.299 99.5576 369.133 99.5576C343.373 99.5576 330.493 111.469 330.493 135.292C330.493 160.665 343.373 173.352 369.133 173.352C376.299 173.352 383.659 172.189 391.213 169.865V175.095Z" fill="black"/>
<path d="M391.213 175.095L392.095 177.962L394.213 177.31V175.095H391.213ZM391.213 97.8145H394.213V95.5987L392.095 94.9471L391.213 97.8145ZM391.213 103.044L390.331 105.911L394.213 107.106V103.044H391.213ZM391.213 169.865H394.213V165.803L390.331 166.998L391.213 169.865ZM390.331 172.227C383.064 174.463 375.614 175.581 367.971 175.581V181.581C376.209 181.581 384.254 180.375 392.095 177.962L390.331 172.227ZM367.971 175.581C353.902 175.581 343.902 172.089 337.401 165.631C330.903 159.176 327.392 149.254 327.392 135.292H321.392C321.392 150.19 325.144 161.912 333.172 169.887C341.197 177.859 352.987 181.581 367.971 181.581V175.581ZM327.392 135.292C327.392 122.149 330.878 112.83 337.341 106.755C343.839 100.647 353.862 97.3281 367.971 97.3281V91.3281C353.027 91.3281 341.26 94.8364 333.232 102.383C325.168 109.963 321.392 121.126 321.392 135.292H327.392ZM367.971 97.3281C375.614 97.3281 383.064 98.4459 390.331 100.682L392.095 94.9471C384.254 92.5345 376.209 91.3281 367.971 91.3281V97.3281ZM388.213 97.8145V103.044H394.213V97.8145H388.213ZM392.095 100.177C384.285 97.7734 376.627 96.5576 369.133 96.5576V102.558C375.971 102.558 383.034 103.666 390.331 105.911L392.095 100.177ZM369.133 96.5576C355.846 96.5576 345.322 99.6247 338.116 106.289C330.866 112.994 327.493 122.856 327.493 135.292H333.493C333.493 123.906 336.56 115.9 342.19 110.694C347.864 105.446 356.66 102.558 369.133 102.558V96.5576ZM327.493 135.292C327.493 148.453 330.837 158.872 338.048 165.974C345.25 173.068 355.802 176.352 369.133 176.352V170.352C356.704 170.352 347.935 167.292 342.258 161.699C336.589 156.116 333.493 147.505 333.493 135.292H327.493ZM369.133 176.352C376.627 176.352 384.285 175.136 392.095 172.733L390.331 166.998C383.034 169.243 375.971 170.352 369.133 170.352V176.352ZM388.213 169.865V175.095H394.213V169.865H388.213Z" fill="black"/>
<path d="M683.213 175.095C675.659 177.419 667.912 178.581 659.971 178.581C630.918 178.581 616.392 164.152 616.392 135.292C616.392 107.983 630.918 94.3281 659.971 94.3281C667.912 94.3281 675.659 95.4902 683.213 97.8145V103.044C675.659 100.72 668.299 99.5576 661.133 99.5576C635.373 99.5576 622.493 111.469 622.493 135.292C622.493 160.665 635.373 173.352 661.133 173.352C668.299 173.352 675.659 172.189 683.213 169.865V175.095ZM704.77 136.222C704.77 160.975 716.449 173.352 739.808 173.352C762.74 173.352 774.206 160.975 774.206 136.222C774.206 111.779 762.74 99.5576 739.808 99.5576C716.449 99.5576 704.77 111.779 704.77 136.222ZM698.088 136.571C698.088 108.409 711.994 94.3281 739.808 94.3281C767.195 94.3281 780.888 108.409 780.888 136.571C780.888 164.578 767.195 178.581 739.808 178.581C711.994 178.581 698.088 164.578 698.088 136.571Z" fill="black"/>
<path d="M683.213 175.095L684.095 177.962L686.213 177.31V175.095H683.213ZM683.213 97.8145H686.213V95.5987L684.095 94.9471L683.213 97.8145ZM683.213 103.044L682.331 105.911L686.213 107.106V103.044H683.213ZM683.213 169.865H686.213V165.803L682.331 166.998L683.213 169.865ZM682.331 172.227C675.064 174.463 667.614 175.581 659.971 175.581V181.581C668.209 181.581 676.254 180.375 684.095 177.962L682.331 172.227ZM659.971 175.581C645.902 175.581 635.902 172.089 629.401 165.631C622.903 159.176 619.392 149.254 619.392 135.292H613.392C613.392 150.19 617.144 161.912 625.172 169.887C633.197 177.859 644.987 181.581 659.971 181.581V175.581ZM619.392 135.292C619.392 122.149 622.878 112.83 629.341 106.755C635.839 100.647 645.862 97.3281 659.971 97.3281V91.3281C645.027 91.3281 633.26 94.8364 625.232 102.383C617.168 109.963 613.392 121.126 613.392 135.292H619.392ZM659.971 97.3281C667.614 97.3281 675.064 98.4459 682.331 100.682L684.095 94.9471C676.254 92.5345 668.209 91.3281 659.971 91.3281V97.3281ZM680.213 97.8145V103.044H686.213V97.8145H680.213ZM684.095 100.177C676.285 97.7734 668.627 96.5576 661.133 96.5576V102.558C667.971 102.558 675.034 103.666 682.331 105.911L684.095 100.177ZM661.133 96.5576C647.846 96.5576 637.322 99.6247 630.116 106.289C622.866 112.994 619.493 122.856 619.493 135.292H625.493C625.493 123.906 628.56 115.9 634.19 110.694C639.864 105.446 648.66 102.558 661.133 102.558V96.5576ZM619.493 135.292C619.493 148.453 622.837 158.872 630.048 165.974C637.25 173.068 647.802 176.352 661.133 176.352V170.352C648.704 170.352 639.935 167.292 634.258 161.699C628.589 156.116 625.493 147.505 625.493 135.292H619.493ZM661.133 176.352C668.627 176.352 676.285 175.136 684.095 172.733L682.331 166.998C675.034 169.243 667.971 170.352 661.133 170.352V176.352ZM680.213 169.865V175.095H686.213V169.865H680.213ZM701.77 136.222C701.77 149.019 704.786 159.175 711.348 166.128C717.94 173.114 727.62 176.352 739.808 176.352V170.352C728.637 170.352 720.798 167.401 715.711 162.01C710.594 156.587 707.77 148.178 707.77 136.222H701.77ZM739.808 176.352C751.798 176.352 761.324 173.105 767.807 166.108C774.25 159.154 777.206 149.007 777.206 136.222H771.206C771.206 148.191 768.429 156.608 763.406 162.03C758.422 167.409 750.75 170.352 739.808 170.352V176.352ZM777.206 136.222C777.206 123.584 774.246 113.547 767.794 106.671C761.309 99.7589 751.787 96.5576 739.808 96.5576V102.558C750.761 102.558 758.437 105.467 763.419 110.776C768.433 116.122 771.206 124.417 771.206 136.222H777.206ZM739.808 96.5576C727.63 96.5576 717.955 99.7502 711.361 106.651C704.79 113.527 701.77 123.571 701.77 136.222H707.77C707.77 124.43 710.589 116.142 715.698 110.796C720.783 105.476 728.626 102.558 739.808 102.558V96.5576ZM701.088 136.571C701.088 122.943 704.452 113.275 710.652 106.997C716.846 100.726 726.373 97.3281 739.808 97.3281V91.3281C725.429 91.3281 714.096 94.9711 706.383 102.781C698.677 110.583 695.088 122.037 695.088 136.571H701.088ZM739.808 97.3281C753.017 97.3281 762.378 100.719 768.467 106.98C774.572 113.257 777.888 122.932 777.888 136.571H783.888C783.888 122.048 780.358 110.601 772.769 102.797C765.164 94.9777 753.985 91.3281 739.808 91.3281V97.3281ZM777.888 136.571C777.888 150.128 774.574 159.742 768.473 165.981C762.385 172.207 753.021 175.581 739.808 175.581V181.581C753.981 181.581 765.158 177.953 772.763 170.176C780.356 162.411 783.888 151.02 783.888 136.571H777.888ZM739.808 175.581C726.369 175.581 716.84 172.201 710.646 165.965C704.45 159.725 701.088 150.117 701.088 136.571H695.088C695.088 151.031 698.679 162.429 706.389 170.192C714.103 177.96 725.433 181.581 739.808 181.581V175.581Z" fill="black"/>
<path d="M301 92L301 204" stroke="black" stroke-width="12"/>
<circle cx="508" cy="102" r="96" stroke="black" stroke-width="12"/>
<path d="M603 92V180" stroke="black" stroke-width="12"/>
</svg>
